<svg data-v-0dd9719b="" version="1.0" xmlns="http://www.w3.org/2000/svg" xmlns:xlink="http://www.w3.org/1999/xlink" width="100%" height="100%" viewBox="0 0 340.000000 250.000000" preserveAspectRatio="xMidYMid meet" color-interpolation-filters="sRGB" style="margin:auto"><rect data-v-0dd9719b="" x="0" y="0" width="100%" height="100%" fill="#0a0619" fill-opacity="1" class="background"></rect><g data-v-0dd9719b="" fill="#ffffff" class="icon-text-wrapper icon-svg-group iconsvg" transform="translate(64.61000061035156,95)"><g class="iconsvg-imagesvg" transform="translate(0,0)" mask="url(#2559686e-2851-497a-80a2-b993b9a1a7e1)"><g><rect fill="#ffffff" fill-opacity="0" stroke-width="2" x="0" y="0" width="60" height="60" class="image-rect"></rect><svg x="0" y="0" width="60" height="60" filtersec="colorsb1636173914" class="image-svg-svg primary" style="overflow:visible"><svg xmlns="http://www.w3.org/2000/svg" viewBox="0.6718975901603699 0.6718989014625549 68.99310302734375 68.99310302734375"><g transform="matrix(.69 0 0 .69 15.5 15.5)"><path fill="#0C0C0C" d="M65.17 11.84h-20v-20c0-7.36-5.97-13.33-13.33-13.33h-40c-7.36 0-13.33 5.97-13.33 13.33v40c0 7.36 5.97 13.33 13.33 13.33h20v20c0 7.36 5.97 13.33 13.33 13.33h40c7.36 0 13.33-5.97 13.33-13.33v-40c0-7.36-5.97-13.33-13.33-13.33zm6.67 53.33c0 3.68-2.98 6.67-6.67 6.67h-40c-3.68 0-6.67-2.98-6.67-6.67v-40c0-3.68 2.98-6.67 6.67-6.67h40c3.68 0 6.67 2.98 6.67 6.67v40z"></path></g></svg></svg></g><rect v-gra="id" width="72" height="72" transform="translate(-6, -6)" style="pointer-events:none" fill="url(#cJL9X_AKjKjQlLI6Pdbya)"></rect></g><g transform="translate(67,5.820001602172852)"><g data-gra="path-name" fill-rule="" class="tp-name iconsvg-namesvg"><g transform="scale(1)"><g><path d="M3.25-46.02L35.75-46.02 35.75-34.58 17.68-34.58 17.68-28.21 30.68-28.21 30.68-17.36 17.68-17.36 17.68 0 3.25 0 3.25-46.02ZM40.63-48.1L55.05-48.1 55.05 0 40.63 0 40.63-48.1ZM85.93-36.66L100.36-36.66 100.36 0 85.93 0 85.93-5.59Q84.24-2.99 81.41-1.36 78.59 0.26 74.69 0.26L74.69 0.26Q68.38 0.26 64.84-3.97 61.3-8.19 61.3-15.41L61.3-15.41 61.3-36.66 75.66-36.66 75.66-17.23Q75.66-14.63 77.06-13.1 78.45-11.57 80.8-11.57L80.8-11.57Q83.2-11.57 84.56-13.1 85.93-14.63 85.93-17.23L85.93-17.23 85.93-36.66ZM147.03 0L130.91 0 124.73-8.26 120.12 0 104.26 0 116.55-19.3 103.61-36.66 119.73-36.66 125.91-28.34 130.59-36.66 146.44-36.66 133.77-17.81 147.03 0Z" transform="translate(-3.25, 48.099998474121094)"></path></g></g></g></g></g><defs v-gra="od"></defs><defs v-gra="id"><filter id="cb3bb396-1f13-4ccf-9490-d87d228e6006" filterUnits="userSpaceOnUse"><feColorMatrix type="matrix" values="0 0 0 0 0.99609375  0 0 0 0 0.99609375  0 0 0 0 0.99609375  0 0 0 1 0"></feColorMatrix></filter><linearGradient x1="0" y1="1" x2="0" y2="0" id="cJL9X_AKjKjQlLI6Pdbya"><stop offset="0%" stop-color="#57ec99"></stop><stop offset="33.33%" stop-color="#1371ef"></stop><stop offset="66.67%" stop-color="#fc1cd5"></stop><stop offset="100%" stop-color="#fccc05"></stop></linearGradient><filter id="42443b3f1de60f6b6fd3b6a9844b4764" filterUnits="objectBoundingBox"><feColorMatrix type="matrix" values="0 0 0 0 0.99609375  0 0 0 0 0.99609375  0 0 0 0 0.99609375  0 0 0 1 0"></feColorMatrix></filter></defs><mask v-gra="im" id="2559686e-2851-497a-80a2-b993b9a1a7e1"><g class="iconsvg-imagesvg" filter="url(#cb3bb396-1f13-4ccf-9490-d87d228e6006)"><g><rect fill="#ffffff" fill-opacity="0" stroke-width="2" x="0" y="0" width="60" height="60" class="image-rect"></rect><svg x="0" y="0" width="60" height="60" filtersec="colorsb1636173914" class="image-svg-svg primary" style="overflow:visible"><svg xmlns="http://www.w3.org/2000/svg" viewBox="0.6718975901603699 0.6718989014625549 68.99310302734375 68.99310302734375"><g transform="matrix(.69 0 0 .69 15.5 15.5)"><path fill="#0C0C0C" d="M65.17 11.84h-20v-20c0-7.36-5.97-13.33-13.33-13.33h-40c-7.36 0-13.33 5.97-13.33 13.33v40c0 7.36 5.97 13.33 13.33 13.33h20v20c0 7.36 5.97 13.33 13.33 13.33h40c7.36 0 13.33-5.97 13.33-13.33v-40c0-7.36-5.97-13.33-13.33-13.33zm6.67 53.33c0 3.68-2.98 6.67-6.67 6.67h-40c-3.68 0-6.67-2.98-6.67-6.67v-40c0-3.68 2.98-6.67 6.67-6.67h40c3.68 0 6.67 2.98 6.67 6.67v40z"></path></g></svg></svg></g></g></mask></svg>